<?xml version="1.0" encoding="UTF-8"?>
<svg version="1.1" xmlns="http://www.w3.org/2000/svg" width="588" height="588">
<path d="M0 0 C1.14879639 -0.00637985 2.29759277 -0.0127597 3.48120117 -0.01933289 C4.73006104 -0.02044571 5.9789209 -0.02155853 7.265625 -0.02270508 C9.19015503 -0.02769768 9.19015503 -0.02769768 11.15356445 -0.03279114 C13.87728718 -0.03878758 16.60097817 -0.04063083 19.32470703 -0.04003906 C22.78989081 -0.03993813 26.25486647 -0.05351549 29.72000122 -0.07081127 C33.04771156 -0.08472119 36.37538605 -0.08402365 39.703125 -0.08520508 C41.55212402 -0.09598335 41.55212402 -0.09598335 43.43847656 -0.10697937 C49.6265339 -0.0907629 55.38066804 0.24815924 61.41546631 1.66017151 C63.47250275 2.13530334 65.50013419 2.45231824 67.59375 2.71557617 C128.26246406 10.61017011 183.70749184 41.26907306 226.515625 84.14526367 C227.56917537 85.16596995 228.62394861 86.18541494 229.6796875 87.20385742 C237.72076854 95.01661719 244.89219948 103.10353943 251.515625 112.14526367 C252.25425781 113.14928223 252.25425781 113.14928223 253.0078125 114.17358398 C267.30422562 133.72229609 279.46711567 154.64869417 288.515625 177.14526367 C288.82854492 177.91837891 289.14146484 178.69149414 289.46386719 179.48803711 C298.4800254 202.10468871 304.87422875 226.02507666 307.25366211 250.27709961 C307.4893897 252.36893089 307.4893897 252.36893089 308.515625 255.14526367 C308.61400919 257.00926401 308.65385317 258.87658237 308.66088867 260.74316406 C308.67045845 262.46624535 308.67045845 262.46624535 308.68022156 264.22413635 C308.68189079 266.08968422 308.68189079 266.08968422 308.68359375 267.99291992 C308.68692215 269.27452499 308.69025055 270.55613007 308.69367981 271.87657166 C308.69966979 274.59431804 308.7015201 277.31203264 308.70092773 280.02978516 C308.70082671 283.48709319 308.71441725 286.94419309 308.73169994 290.40145206 C308.74560698 293.72361045 308.74491212 297.0457329 308.74609375 300.36791992 C308.75327927 301.59744888 308.76046478 302.82697784 308.76786804 304.09376526 C308.7516411 310.26879404 308.41168814 316.01122218 307.00415039 322.03356934 C306.51966875 324.12778421 306.19057564 326.19865192 305.91015625 328.32885742 C299.06021677 379.20386642 276.32302954 429.44468216 242.515625 468.14526367 C241.76796875 469.00249023 241.0203125 469.8597168 240.25 470.74291992 C235.52355818 476.07222422 230.60177424 481.16038732 225.515625 486.14526367 C224.690625 486.97026367 223.865625 487.79526367 223.015625 488.64526367 C222.190625 489.47026367 221.365625 490.29526367 220.515625 491.14526367 C219.95617187 491.72791992 219.39671875 492.31057617 218.8203125 492.91088867 C213.41317441 498.47126549 207.59203489 503.33410093 201.515625 508.14526367 C200.58492188 508.90452148 199.65421875 509.6637793 198.6953125 510.44604492 C158.98433535 542.12151103 107.98130949 563.22661047 57.36206055 567.88330078 C55.42464878 568.05860973 55.42464878 568.05860973 53.515625 569.14526367 C51.68965996 569.24644318 49.86000322 569.28364953 48.03125 569.29052734 C46.88245361 569.2969072 45.73365723 569.30328705 44.55004883 569.30986023 C43.30118896 569.31097305 42.0523291 569.31208588 40.765625 569.31323242 C38.84109497 569.31822502 38.84109497 569.31822502 36.87768555 569.32331848 C34.15396282 569.32931493 31.43027183 569.33115817 28.70654297 569.33056641 C25.24135919 569.33046548 21.77638353 569.34404283 18.31124878 569.36133862 C14.98353844 569.37524853 11.65586395 569.37455099 8.328125 569.37573242 C7.09545898 569.38291794 5.86279297 569.39010345 4.59277344 569.39750671 C-1.5952839 569.38129024 -7.34941804 569.04236811 -13.38421631 567.63035583 C-15.44125275 567.155224 -17.46888419 566.8382091 -19.5625 566.57495117 C-66.72399714 560.43800109 -113.56234339 540.07391659 -150.484375 510.14526367 C-151.16886719 509.6322168 -151.85335937 509.11916992 -152.55859375 508.59057617 C-163.51314382 500.36974685 -173.15098684 490.57912887 -182.859375 480.95776367 C-184.12551636 479.71119995 -184.12551636 479.71119995 -185.41723633 478.43945312 C-190.56682217 473.29700603 -195.13821835 467.97636872 -199.484375 462.14526367 C-200.35580667 461.03048588 -201.23048801 459.91823569 -202.109375 458.80932617 C-207.32087893 452.14065831 -212.07040631 445.37730391 -216.484375 438.14526367 C-217.11988281 437.13979492 -217.75539062 436.13432617 -218.41015625 435.09838867 C-240.30580018 400.23542164 -255.00007742 360.45901099 -259.08984375 319.39135742 C-259.28560947 316.26276823 -259.28560947 316.26276823 -260.484375 314.14526367 C-260.58555451 312.31929863 -260.62276086 310.48964189 -260.62963867 308.66088867 C-260.63601852 307.51209229 -260.64239838 306.3632959 -260.64897156 305.1796875 C-260.65008438 303.93082764 -260.6511972 302.68196777 -260.65234375 301.39526367 C-260.65567215 300.11224365 -260.65900055 298.82922363 -260.66242981 297.50732422 C-260.66842626 294.7836015 -260.6702695 292.0599105 -260.66967773 289.33618164 C-260.66957681 285.87099786 -260.68315416 282.40602221 -260.70044994 278.94088745 C-260.71435986 275.61317711 -260.71366232 272.28550262 -260.71484375 268.95776367 C-260.72202927 267.72509766 -260.72921478 266.49243164 -260.73661804 265.22241211 C-260.72041236 259.03847077 -260.38305033 253.28671161 -258.97290039 247.25572205 C-258.48823212 245.16192666 -258.15929008 243.09150866 -257.87890625 240.96166992 C-255.16127077 220.81139707 -249.83827347 201.07627886 -242.29882812 182.2019043 C-241.52564591 180.24948013 -240.78881505 178.28739613 -240.0625 176.31713867 C-236.07482062 165.7878729 -230.90191501 155.99767702 -225.484375 146.14526367 C-224.93015869 145.13206055 -224.93015869 145.13206055 -224.36474609 144.09838867 C-220.16506478 136.45625013 -215.63518936 129.18470996 -210.484375 122.14526367 C-209.90429688 121.32155273 -209.32421875 120.4978418 -208.7265625 119.64916992 C-206.68889934 116.78024251 -204.59803965 113.95869845 -202.484375 111.14526367 C-201.87988525 110.3312207 -201.87988525 110.3312207 -201.26318359 109.50073242 C-193.88461984 99.66634733 -185.52803914 90.89481022 -176.859375 82.20776367 C-176.33070831 81.67560242 -175.80204163 81.14344116 -175.25735474 80.59515381 C-168.33616701 73.6486275 -161.19698437 67.22141048 -153.484375 61.14526367 C-152.40039499 60.26454858 -151.3169333 59.38319446 -150.234375 58.50073242 C-130.13422318 42.65473205 -107.18772627 29.74381585 -83.484375 20.14526367 C-82.28433838 19.65678955 -82.28433838 19.65678955 -81.06005859 19.15844727 C-58.13386738 9.97991551 -33.93418297 3.67060045 -9.33081055 1.40722656 C-5.97181947 0.93066998 -3.5793255 0.01346159 0 0 Z " fill="#FEFEFE" transform="translate(271.484375,9.854736328125)"/>
<path d="M0 0 C0.86367188 0.71671875 1.72734375 1.4334375 2.6171875 2.171875 C4.32639343 3.58822633 6.06237583 4.97273035 7.8203125 6.328125 C10.125 8.25 10.125 8.25 12.125 11.25 C11.80198866 14.62816027 10.37784569 16.42398733 8.125 18.875 C7.49851562 19.56335938 6.87203125 20.25171875 6.2265625 20.9609375 C5.53304688 21.71632812 4.83953125 22.47171875 4.125 23.25 C3.36960937 24.10851562 2.61421875 24.96703125 1.8359375 25.8515625 C-8.488704 37.55742695 -8.488704 37.55742695 -16.4375 38.8125 C-22.5920713 38.7446187 -26.62144464 34.24693061 -30.875 30.25 C-31.39457275 29.70102051 -31.91414551 29.15204102 -32.44946289 28.58642578 C-36.6385146 24.18562506 -40.83876263 21.11103484 -46.1875 18.25 C-46.97165283 17.82630127 -47.75580566 17.40260254 -48.5637207 16.96606445 C-82.02985099 -0.70135125 -119.93498568 -4.35307047 -156.24609375 6.10546875 C-178.59257123 13.15338899 -197.77917979 24.07681136 -214.875 40.25 C-215.68710938 40.99765625 -216.49921875 41.7453125 -217.3359375 42.515625 C-241.47304553 65.51059858 -255.98195867 99.53818845 -257.078125 132.81640625 C-257.57591169 164.02356178 -249.48407708 188.87470593 -235.97900391 216.74243164 C-231.14173662 227.72951088 -235.2959497 238.77170707 -238.3125 249.6875 C-238.73861357 251.26731322 -239.16375221 252.84738974 -239.58789062 254.42773438 C-242.67624305 265.85248609 -242.67624305 265.85248609 -243.875 268.25 C-242.99763184 268.01289307 -242.12026367 267.77578613 -241.21630859 267.53149414 C-237.94054991 266.64769332 -234.66411856 265.76647536 -231.38720703 264.88696289 C-229.97286915 264.50680102 -228.55880179 264.12563117 -227.14501953 263.7434082 C-225.10520711 263.19212698 -223.06442835 262.64455625 -221.0234375 262.09765625 C-219.79802246 261.76773682 -218.57260742 261.43781738 -217.31005859 261.09790039 C-201.59072177 257.21778264 -189.68962363 261.29993981 -175.625 268.1875 C-169.64282108 271.1041467 -163.65486154 273.53816254 -157.3125 275.5625 C-156.60641602 275.79251709 -155.90033203 276.02253418 -155.17285156 276.25952148 C-142.03027712 280.28218699 -129.11740748 281.78553054 -115.4375 281.625 C-114.35707428 281.61752243 -114.35707428 281.61752243 -113.25482178 281.6098938 C-82.60145055 281.36165572 -55.37576886 270.93825822 -31.046875 252.3359375 C-30.3856665 251.83553955 -29.72445801 251.3351416 -29.04321289 250.81958008 C-27.75625708 249.84036423 -26.47871765 248.84860222 -25.21264648 247.8425293 C-21.19259957 244.7740375 -18.10678855 243.28745911 -12.875 243.25 C-10.93359375 244.19140625 -10.93359375 244.19140625 -9.3125 245.8125 C-8.33216797 246.76576172 -8.33216797 246.76576172 -7.33203125 247.73828125 C-6.52121094 248.56714844 -5.71039063 249.39601563 -4.875 250.25 C-3.6932059 251.41198941 -2.50944914 252.57198457 -1.32421875 253.73046875 C1.1768033 256.19048519 3.67328682 258.65455704 6.1484375 261.140625 C6.93613525 261.93001465 6.93613525 261.93001465 7.73974609 262.73535156 C10.05133565 265.2628633 11.1382216 266.64180621 11.0625 270.125 C7.04305554 283.5231482 -17.11107291 295.85614564 -28.9375 302.3125 C-56.23397461 316.6139275 -85.4805908 323.71732916 -116.25 323.625 C-117.42536819 323.62268875 -117.42536819 323.62268875 -118.6244812 323.62033081 C-145.83716032 323.49378587 -172.90799935 318.4213517 -197.1015625 305.34375 C-204.19561242 302.54609651 -210.54521181 303.19392572 -217.75 305.125 C-218.61278564 305.34188477 -219.47557129 305.55876953 -220.36450195 305.78222656 C-223.53976402 306.58611777 -226.70736002 307.41657197 -229.875 308.25 C-235.15535235 309.6348403 -240.43728971 311.01345046 -245.72052002 312.38726807 C-248.02058489 312.98903375 -250.3177285 313.60107558 -252.61474609 314.21435547 C-275.1655851 320.17166893 -275.1655851 320.17166893 -284.875 315.25 C-289.38261775 311.46881652 -292.33675752 306.87374879 -293.2109375 300.98828125 C-293.4307832 287.33586359 -288.85073185 273.93254243 -285.1796875 260.9140625 C-283.76303922 255.87062213 -282.38633712 250.81862182 -281.0625 245.75 C-280.84343994 244.94965332 -280.62437988 244.14930664 -280.39868164 243.32470703 C-277.39321804 231.63477403 -279.34038081 223.8292704 -284.0625 212.8125 C-292.6091779 192.12451203 -298.05032029 170.71039451 -298.875 148.25 C-298.90754883 147.50395508 -298.94009766 146.75791016 -298.97363281 145.98925781 C-300.69386102 101.83673385 -285.97648692 56.00764871 -256.1875 22.875 C-255.45015625 22.08480469 -254.7128125 21.29460937 -253.953125 20.48046875 C-252.04473109 18.43217378 -250.23875274 16.32964403 -248.4375 14.1875 C-225.18126613 -12.30023789 -188.84399138 -30.19696883 -154.875 -37.75 C-154.09866211 -37.93191895 -153.32232422 -38.11383789 -152.52246094 -38.30126953 C-98.01238005 -50.74538873 -42.82577293 -34.90983884 0 0 Z " fill="#010101" transform="translate(412.875,153.75)"/>
<path d="M0 0 C0.59425781 0.31646484 1.18851562 0.63292969 1.80078125 0.95898438 C19.09518021 10.24671715 42.99221774 24.48832661 54 41 C54 46.034272 52.06313172 48.66372918 48.80859375 52.21484375 C46.30381244 54.6871657 43.64581004 56.95316468 40.9609375 59.2265625 C38.45302241 61.49467694 36.3400682 63.98416085 34.2265625 66.6171875 C32.21162375 68.88880635 30.84787757 69.01987436 27.80078125 69.41796875 C22.70039709 68.85708375 20.76796841 66.78396347 17.1875 63.3125 C-0.198511 47.42709338 -20.21299631 34.52017983 -42.10546875 25.76757812 C-43.92784315 25.02923468 -45.73020756 24.24207722 -47.53125 23.453125 C-94.12776966 4.13747369 -152.59728154 6.48916827 -199 25 C-213.1917487 30.9782621 -226.43774019 38.10314557 -239 47 C-239.6707959 47.47018555 -240.3415918 47.94037109 -241.03271484 48.42480469 C-251.48496217 55.80962617 -260.83905954 64.08212201 -270 73 C-270.86496094 73.825 -271.72992188 74.65 -272.62109375 75.5 C-308.00151715 109.83801924 -329.13514234 161.79327334 -330.30078125 210.91015625 C-330.32958919 213.62794013 -330.32701769 216.34463026 -330.3125 219.0625 C-330.30976578 220.13558411 -330.30976578 220.13558411 -330.30697632 221.23034668 C-330.25393743 233.67565308 -329.39346615 245.77121813 -327 258 C-326.75854248 259.26481201 -326.75854248 259.26481201 -326.51220703 260.55517578 C-323.48436577 275.88634898 -319.00642987 291.98714025 -312 306 C-310.27749573 319.01665158 -314.38151855 330.76559272 -318.13671875 343.08203125 C-318.90516392 345.67944547 -319.60248502 348.27654629 -320.25 350.90625 C-320.42370117 351.61072266 -320.59740234 352.31519531 -320.77636719 353.04101562 C-321.21598445 354.8593089 -321.64740055 356.67957966 -322.078125 358.5 C-322.53445313 359.7375 -322.53445313 359.7375 -323 361 C-323.99 361.33 -324.98 361.66 -326 362 C-363.7208684 312.73339051 -378.09051971 249.48367007 -370.33764648 188.17675781 C-362.92339478 133.93587208 -339.03785181 81.12623024 -299 43 C-298.195625 42.195625 -297.39125 41.39125 -296.5625 40.5625 C-295.716875 39.716875 -294.87125 38.87125 -294 38 C-293.21109375 37.15888672 -293.21109375 37.15888672 -292.40625 36.30078125 C-286.76005937 30.40338298 -280.48756596 25.42157034 -273.9921875 20.50927734 C-272.65384308 19.49535023 -271.32055419 18.47471833 -269.9921875 17.44775391 C-245.47902944 -1.45557259 -216.8421886 -14.89051139 -187 -23 C-186.17419434 -23.22526367 -185.34838867 -23.45052734 -184.49755859 -23.68261719 C-122.7508207 -40.0689368 -55.8718771 -30.01432348 0 0 Z " fill="#010101" transform="translate(418,75)"/>
<path d="M0 0 C2.39355469 1.81005859 2.39355469 1.81005859 4.671875 4.1484375 C5.50074219 4.98890625 6.32960938 5.829375 7.18359375 6.6953125 C8.45396484 8.02175781 8.45396484 8.02175781 9.75 9.375 C10.61238281 10.2515625 11.47476562 11.128125 12.36328125 12.03125 C20.83913238 20.70606477 20.83913238 20.70606477 21.359375 24.890625 C20.37934266 33.37003528 9.67150797 40.31045997 3.41796875 45.3671875 C-50.50286576 87.33920327 -118.19614129 106.08590884 -186.0625 97.6875 C-189.71883681 97.18095237 -193.35927278 96.60752695 -197 96 C-198.94519531 95.70996094 -198.94519531 95.70996094 -200.9296875 95.4140625 C-233.93758312 89.7534657 -269.3101301 75.36218038 -296 55 C-296.33 54.34 -296.66 53.68 -297 53 C-288.82681361 48.9630966 -280.58394002 46.13199968 -271.8125 43.6875 C-270.61302734 43.32849609 -269.41355469 42.96949219 -268.17773438 42.59960938 C-253.53029956 38.49394826 -241.52529771 39.03021079 -227.37628174 43.98873901 C-223.9098344 45.19907243 -220.41416741 46.32002869 -216.921875 47.453125 C-216.23481476 47.67802109 -215.54775452 47.90291718 -214.83987427 48.1346283 C-163.36355942 64.88376414 -108.56862725 60.1178454 -60.41015625 35.8515625 C-46.29970902 28.52022689 -33.52536666 19.75455463 -21 10 C-19.12220949 8.54908846 -17.24281736 7.10028627 -15.36254883 5.65258789 C-13.73049885 4.39386619 -12.10335593 3.12878929 -10.4765625 1.86328125 C-6.49183393 -1.13469277 -4.86588528 -1.26260946 0 0 Z " fill="#010101" transform="translate(450,446)"/>
<path d="M0 0 C0.66 0.33 1.32 0.66 2 1 C-5.59 8.59 -13.18 16.18 -21 24 C-21 20.55976047 -20.6780229 20.27885862 -18.4375 17.890625 C-17.8911792 17.30361816 -17.3448584 16.71661133 -16.78198242 16.11181641 C-16.19392822 15.49741699 -15.60587402 14.88301758 -15 14.25 C-14.11501831 13.31099854 -14.11501831 13.31099854 -13.2121582 12.35302734 C-9.03458654 7.96477863 -4.72746672 3.79911223 0 0 Z " fill="#1E1E1E" transform="translate(178,155)"/>
</svg>
