<?xml version="1.0" encoding="UTF-8"?>
<svg version="1.1" xmlns="http://www.w3.org/2000/svg" width="3096" height="645">
<path d="M0 0 C2.24228292 0.00314554 4.48322206 -0.02034044 6.7253418 -0.0456543 C41.0162466 -0.19634022 72.92577789 13.34450743 98.07495117 36.31567383 C98.87288086 37.03110352 99.67081055 37.7465332 100.49291992 38.48364258 C124.3449248 60.98473745 137.88715658 94.29249225 142.07495117 126.31567383 C142.16921387 127.02780029 142.26347656 127.73992676 142.3605957 128.47363281 C143.27547451 136.33684431 143.31834487 144.2218809 143.32495117 152.12817383 C143.32562592 152.85699768 143.32630066 153.58582153 143.32699585 154.33673096 C143.27021987 193.10039557 131.9485379 230.20288258 107.07495117 260.31567383 C106.63650879 260.84660645 106.19806641 261.37753906 105.74633789 261.92456055 C90.81948842 279.71157587 70.75779956 292.45592689 49.07495117 300.31567383 C48.02694336 300.69723633 46.97893555 301.07879883 45.89916992 301.47192383 C22.10239627 309.45457725 -5.59595699 310.24902892 -29.92504883 304.31567383 C-30.62984375 304.14938477 -31.33463867 303.9830957 -32.06079102 303.81176758 C-58.81024695 297.30807275 -79.70810118 281.53262148 -98.92504883 262.31567383 C-99.25504883 322.04567383 -99.58504883 381.77567383 -99.92504883 443.31567383 C-120.38504883 443.31567383 -140.84504883 443.31567383 -161.92504883 443.31567383 C-161.92504883 298.44567383 -161.92504883 153.57567383 -161.92504883 4.31567383 C-141.46504883 4.31567383 -121.00504883 4.31567383 -99.92504883 4.31567383 C-99.43004883 24.61067383 -99.43004883 24.61067383 -98.92504883 45.31567383 C-95.62504883 41.68567383 -92.32504883 38.05567383 -88.92504883 34.31567383 C-86.7035568 32.31410704 -84.6022378 30.47695749 -82.23754883 28.69067383 C-81.65287842 28.24175781 -81.06820801 27.7928418 -80.46582031 27.33032227 C-56.69162159 9.45308501 -29.81165124 -0.08698958 0 0 Z M-74.92504883 82.31567383 C-94.86005202 105.07507615 -101.65402019 133.60932105 -99.92504883 163.31567383 C-97.58839704 191.10139127 -86.2432309 215.87683063 -64.92504883 234.31567383 C-46.75457974 248.30551971 -23.87865806 255.61527199 -0.9362793 253.09741211 C22.0675807 249.92581135 43.85742753 238.57914303 58.32495117 220.19067383 C77.64753672 194.33645527 82.84475103 163.06653995 78.43432617 131.57006836 C74.6233632 107.66352485 62.32276411 86.54435421 43.38745117 71.56567383 C6.12722972 45.04063246 -43.04578759 49.37857889 -74.92504883 82.31567383 Z " fill="#000000" transform="translate(1654.925048828125,199.684326171875)"/>
<path d="M0 0 C0.53254395 0.39364746 1.06508789 0.78729492 1.61376953 1.19287109 C8.3040117 6.15725413 14.74254389 11.38475492 21.0625 16.8125 C21.69406006 17.35173096 22.32562012 17.89096191 22.97631836 18.4465332 C26.85650929 21.82081721 30.60284673 25.20569346 32.9375 29.875 C33.10905558 35.70788982 29.19942409 40.34001365 25.45703125 44.39648438 C24.89371094 44.98751953 24.33039062 45.57855469 23.75 46.1875 C23.20214844 46.79013672 22.65429688 47.39277344 22.08984375 48.01367188 C17.74329427 52.65033063 13.26219135 56.8791781 6.625 57.125 C-1.21517875 54.69184108 -7.07880404 49.14299038 -13.3125 44 C-69.10094906 -1.85026545 -140.39763447 -25.38081222 -212.55249023 -19.03295898 C-215.70598253 -18.71924293 -218.85267748 -18.37038791 -222 -18 C-223.06379883 -17.87496094 -224.12759766 -17.74992187 -225.22363281 -17.62109375 C-280.79828839 -10.74725463 -335.65524027 13.32860631 -376.66796875 51.8203125 C-378.68700592 53.70745277 -380.75193267 55.48297502 -382.875 57.25 C-393.5318233 66.55565143 -402.56817004 77.69198909 -411 89 C-411.47260254 89.62680664 -411.94520508 90.25361328 -412.43212891 90.89941406 C-421.45448217 102.94327661 -428.92422689 115.73322112 -436 129 C-436.41878418 129.77472656 -436.83756836 130.54945313 -437.26904297 131.34765625 C-449.63155493 154.5280141 -457.12148273 181.30909855 -462 207 C-462.16435547 207.86318848 -462.32871094 208.72637695 -462.49804688 209.61572266 C-472.68602941 265.52938216 -466.34951477 323.60102426 -442 375 C-441.45859375 376.175625 -440.9171875 377.35125 -440.359375 378.5625 C-433.31082652 393.34392206 -424.17786255 407.19451934 -414 420 C-413.53013672 420.59844727 -413.06027344 421.19689453 -412.57617188 421.81347656 C-405.01630552 431.42503079 -397.05652542 440.55029252 -388.57666016 449.36035156 C-387.17069938 450.8224811 -385.77777943 452.29712497 -384.38671875 453.7734375 C-378.83564297 459.53347358 -372.83705121 464.42498549 -366.50390625 469.27734375 C-363.26318187 471.76782673 -360.16159641 474.39719366 -357.0625 477.0625 C-305.72985096 520.04340852 -234.80456565 538.76509715 -168.859375 533.50390625 C-130.77151905 529.87075924 -94.71370026 519.12067809 -61 501 C-59.99549805 500.46076904 -59.99549805 500.46076904 -58.97070312 499.91064453 C-39.5053493 489.37833454 -21.07840404 476.63783187 -4.53955078 461.90722656 C-3.04637158 460.58193064 -1.52371831 459.29006819 0 458 C1.45986328 456.75089844 1.45986328 456.75089844 2.94921875 455.4765625 C6 454 6 454 9.33203125 454.73046875 C14.20142145 457.31578425 17.89224532 461.39062577 21.6875 465.3125 C22.43322266 466.05951172 23.17894531 466.80652344 23.94726562 467.57617188 C33.94473591 477.73417246 33.94473591 477.73417246 34.0625 482.5625 C32.62135797 485.86864936 30.6691914 487.55797382 28 490 C26.79001297 491.24839931 25.58183792 492.49855616 24.375 493.75 C19.54747138 498.55080798 14.36847952 502.82194759 9 507 C8.29294922 507.55107422 7.58589844 508.10214844 6.85742188 508.66992188 C-41.25328956 545.94669496 -97.30920158 569.01763698 -158 575 C-158.93859863 575.0942627 -159.87719727 575.18852539 -160.84423828 575.28564453 C-170.88644988 576.17967165 -180.92549249 576.24232969 -191 576.25 C-191.92186096 576.25100708 -192.84372192 576.25201416 -193.79351807 576.25305176 C-216.84015071 576.23611706 -239.54464938 574.45882871 -262 569 C-262.9796875 568.76297363 -263.959375 568.52594727 -264.96875 568.28173828 C-308.58665309 557.53246235 -348.48238732 538.55763707 -384 511 C-384.81597656 510.36707031 -385.63195312 509.73414063 -386.47265625 509.08203125 C-389.00665327 507.08367588 -391.50610149 505.0481648 -394 503 C-394.96550781 502.22140625 -395.93101562 501.4428125 -396.92578125 500.640625 C-404.98498264 494.019198 -412.42524397 486.7889523 -419.8125 479.4375 C-420.54416885 478.71359573 -420.54416885 478.71359573 -421.2906189 477.97506714 C-427.98922795 471.33255585 -434.15309459 464.4065796 -440 457 C-440.86937312 455.92804583 -441.73907783 454.85636034 -442.609375 453.78515625 C-493.08445569 389.58601165 -517.53240449 304.09939493 -508.7578125 222.87890625 C-502.18796001 169.14491552 -484.17646537 118.40589217 -453 74 C-452.50467773 73.29085449 -452.00935547 72.58170898 -451.49902344 71.85107422 C-436.61798575 50.67104856 -418.66401987 30.82659418 -399 14 C-398.08734375 13.19820313 -397.1746875 12.39640625 -396.234375 11.5703125 C-346.82216335 -31.50414207 -281.57341641 -58.45977526 -216 -62 C-215.05318359 -62.05349609 -214.10636719 -62.10699219 -213.13085938 -62.16210938 C-135.78172028 -66.36855648 -62.4122001 -46.47476536 0 0 Z " fill="#040404" transform="translate(531,67)"/>
<path d="M0 0 C2.2776477 -0.00961134 4.55435386 -0.04065861 6.83178711 -0.07226562 C41.35511567 -0.32149528 72.50327346 13.65972495 97.37670898 37.24023438 C99.35670898 39.55023438 101.33670898 41.86023438 103.37670898 44.24023438 C103.70670898 31.04023438 104.03670898 17.84023437 104.37670898 4.24023438 C125.16670898 4.24023438 145.95670898 4.24023438 167.37670898 4.24023438 C167.37670898 102.58023438 167.37670898 200.92023438 167.37670898 302.24023438 C146.58670898 302.24023438 125.79670898 302.24023438 104.37670898 302.24023438 C104.04670898 289.04023438 103.71670898 275.84023438 103.37670898 262.24023438 C99.91170898 266.20023437 99.91170898 266.20023437 96.37670898 270.24023438 C93.74999507 272.68886599 91.15803031 274.98549712 88.37670898 277.24023438 C87.51432617 277.94019531 86.65194336 278.64015625 85.76342773 279.36132812 C61.51716663 298.29244133 32.87395625 307.69573519 2.12670898 307.55273438 C0.86181641 307.54781982 -0.40307617 307.54290527 -1.70629883 307.5378418 C-11.61634012 307.4144409 -20.99820525 306.59267295 -30.62329102 304.24023438 C-31.32276855 304.07394531 -32.02224609 303.90765625 -32.74291992 303.73632812 C-67.80102002 295.13702127 -96.45200629 271.88642345 -115.27026367 241.50537109 C-118.79369091 235.60671394 -121.8117192 229.50478289 -124.62329102 223.24023438 C-125.43733398 221.44392578 -125.43733398 221.44392578 -126.26782227 219.61132812 C-143.87685506 178.28582585 -143.16577705 127.2982333 -126.67553711 85.73535156 C-111.1971453 49.03252923 -82.82335033 22.50113975 -46.18579102 7.49023438 C-31.1034347 1.92367893 -16.00043475 0.04060595 0 0 Z M-43.62329102 76.24023438 C-44.37352539 76.89507812 -45.12375977 77.54992187 -45.89672852 78.22460938 C-65.7173654 96.72387047 -73.22415398 123.03787846 -74.81079102 149.34960938 C-75.23471219 168.53204245 -71.48312542 187.18398312 -62.62329102 204.24023438 C-62.11024414 205.23667969 -61.59719727 206.233125 -61.06860352 207.25976562 C-48.97505701 229.33482778 -30.00417094 243.50752434 -6.06079102 250.67773438 C-1.24331842 251.91901279 3.40294954 253.02398396 8.37670898 253.24023438 C9.37702148 253.29179687 10.37733398 253.34335937 11.40795898 253.39648438 C35.51268707 254.04796351 57.59961614 245.52030888 75.37670898 229.24023438 C94.54634873 210.31596602 104.49155338 184.46194949 104.70629883 157.73706055 C104.69783936 155.91331909 104.69783936 155.91331909 104.68920898 154.05273438 C104.68074951 152.13908081 104.68074951 152.13908081 104.67211914 150.18676758 C104.3442838 124.62697196 96.53261053 101.52832254 79.37670898 82.24023438 C78.7128418 81.48226562 78.04897461 80.72429687 77.36499023 79.94335938 C62.82277864 64.3528183 41.4806774 55.02214302 20.30639648 53.89257812 C-3.51753689 53.2041696 -25.61181028 60.39951841 -43.62329102 76.24023438 Z " fill="#000000" transform="translate(2701.623291015625,199.759765625)"/>
<path d="M0 0 C2.2776477 -0.00961134 4.55435386 -0.04065861 6.83178711 -0.07226562 C40.61024696 -0.31611794 71.92459717 13.10985833 96.37670898 36.24023438 C98.68670898 38.88023437 100.99670898 41.52023438 103.37670898 44.24023438 C103.70670898 31.04023438 104.03670898 17.84023437 104.37670898 4.24023438 C125.16670898 4.24023438 145.95670898 4.24023438 167.37670898 4.24023438 C167.37670898 102.58023438 167.37670898 200.92023438 167.37670898 302.24023438 C146.58670898 302.24023438 125.79670898 302.24023438 104.37670898 302.24023438 C104.04670898 289.04023438 103.71670898 275.84023438 103.37670898 262.24023438 C100.40670898 265.54023438 97.43670898 268.84023438 94.37670898 272.24023438 C66.45802031 298.49803789 31.85085406 308.21535384 -5.70532227 307.52539062 C-14.22618982 307.24918184 -22.34658322 306.2631199 -30.62329102 304.24023438 C-31.32276855 304.07394531 -32.02224609 303.90765625 -32.74291992 303.73632812 C-67.37239817 295.24215676 -96.25149441 272.22195866 -114.92163086 242.14892578 C-138.89057671 202.34991036 -144.40798217 153.27493947 -133.78369141 108.29174805 C-124.53489283 71.56249364 -103.10500559 39.49609608 -70.63500977 19.43359375 C-48.56454401 6.34130775 -25.56789769 0.06488628 0 0 Z M-44.62329102 77.24023438 C-45.26008789 77.79324219 -45.89688477 78.34625 -46.55297852 78.91601562 C-66.10123074 97.06796411 -73.33981781 123.86546484 -74.75219727 149.58789062 C-75.43257806 176.03202424 -67.74207349 201.9136652 -50.62329102 222.24023438 C-50.06254883 222.96210938 -49.50180664 223.68398438 -48.92407227 224.42773438 C-36.33415213 240.03557725 -15.20124768 250.21893497 4.47827148 252.85351562 C28.47424086 255.23387732 50.51774497 249.14524913 69.56420898 234.30273438 C89.82460846 217.51374291 101.13779965 194.17926616 104.37670898 168.24023438 C105.8993182 137.10748991 101.93737841 107.35362422 80.37670898 83.24023438 C79.63807617 82.4075 78.89944336 81.57476562 78.13842773 80.71679688 C63.32396489 64.95673002 42.11340449 54.9802192 20.51733398 53.96289062 C-4.20829864 53.26785898 -26.02900388 60.77350674 -44.62329102 77.24023438 Z " fill="#000000" transform="translate(1258.623291015625,199.759765625)"/>
<path d="M0 0 C1.0050013 0.91664954 2.00762266 1.8359154 3.0078125 2.7578125 C3.50442383 3.2105957 4.00103516 3.66337891 4.51269531 4.12988281 C22.8240052 21.01341025 37.6935368 43.23716415 46.0078125 66.7578125 C46.0078125 67.4178125 46.0078125 68.0778125 46.0078125 68.7578125 C36.42033635 69.17655145 26.83604119 69.49547031 17.24138927 69.69043159 C12.78465754 69.78405954 8.33421345 69.91073432 3.88110352 70.11572266 C-24.92629792 71.40799371 -24.92629792 71.40799371 -31.62805176 67.03973389 C-35.52546554 62.89338515 -37.41964382 58.32149298 -39.12289429 52.96279907 C-40.53519304 49.38046375 -42.94372544 46.84299298 -45.6171875 44.1328125 C-46.52984375 43.19695312 -47.4425 42.26109375 -48.3828125 41.296875 C-49.24390625 40.45898438 -50.105 39.62109375 -50.9921875 38.7578125 C-51.72953125 38.02304688 -52.466875 37.28828125 -53.2265625 36.53125 C-73.33051726 17.52787671 -101.66991231 10.31543066 -128.6796875 10.4453125 C-129.90212158 10.45022705 -131.12455566 10.4551416 -132.3840332 10.46020508 C-142.18485529 10.58624612 -151.46962642 11.44876189 -160.9921875 13.7578125 C-162.0435791 14.00724609 -162.0435791 14.00724609 -163.11621094 14.26171875 C-184.38446503 19.47973657 -202.17394981 29.64323307 -217.9921875 44.7578125 C-218.59289062 45.29535156 -219.19359375 45.83289063 -219.8125 46.38671875 C-246.17611225 70.84969849 -254.43895518 109.1138332 -256.1796875 143.45703125 C-256.92736367 182.94367891 -244.45044025 221.14068792 -216.92578125 249.87890625 C-195.09200731 271.81535834 -163.77553906 282.66026422 -133.24755859 282.99951172 C-104.41023216 283.06544777 -76.05422712 277.8011034 -53.9921875 257.7578125 C-53.10015625 256.95859375 -52.208125 256.159375 -51.2890625 255.3359375 C-41.82542461 246.40099447 -35.4124726 235.99331142 -28.9921875 224.7578125 C-4.2421875 224.7578125 20.5078125 224.7578125 46.0078125 224.7578125 C44.04321971 230.65159086 42.17029256 235.93001843 39.3828125 241.3828125 C39.03726318 242.06303467 38.69171387 242.74325684 38.33569336 243.4440918 C32.30923659 255.1391718 25.74306844 265.8568465 17.0078125 275.7578125 C16.25371094 276.62148438 15.49960938 277.48515625 14.72265625 278.375 C12.51521504 280.86641736 10.27416379 283.31995355 8.0078125 285.7578125 C7.38519531 286.43457031 6.76257812 287.11132812 6.12109375 287.80859375 C-26.5757398 322.01345736 -76.74247594 337.33274119 -122.82055664 338.73608398 C-164.77962315 339.43927484 -206.44090061 329.29231507 -240.9921875 304.7578125 C-242.01183594 304.04109375 -243.03148437 303.324375 -244.08203125 302.5859375 C-251.56585443 297.1536643 -258.31310306 291.12708948 -264.9921875 284.7578125 C-265.82363281 283.99082031 -266.65507813 283.22382813 -267.51171875 282.43359375 C-303.18039661 248.49360787 -319.59405065 199.13123915 -321.1796875 150.91796875 C-322.15104173 102.67236413 -307.18953353 55.20865408 -274.9921875 18.7578125 C-274.3120459 17.97929932 -274.3120459 17.97929932 -273.61816406 17.18505859 C-266.94926314 9.58732277 -260.02310118 2.93972247 -251.9921875 -3.2421875 C-251.03183594 -4.02980469 -250.07148437 -4.81742188 -249.08203125 -5.62890625 C-224.18488584 -25.67881981 -193.36819588 -37.993785 -161.9921875 -43.2421875 C-160.09726562 -43.57863281 -160.09726562 -43.57863281 -158.1640625 -43.921875 C-102.91208833 -52.08664041 -42.05808223 -37.48785502 0 0 Z " fill="#000000" transform="translate(1037.9921875,167.2421875)"/>
<path d="M0 0 C0.47743652 0.43489746 0.95487305 0.86979492 1.44677734 1.31787109 C2.19314453 1.99205078 2.93951172 2.66623047 3.70849609 3.36083984 C19.95387908 18.81537254 33.45654337 40.43773136 41.44677734 61.31787109 C41.44677734 62.63787109 41.44677734 63.95787109 41.44677734 65.31787109 C32.00713271 65.76018617 22.57109956 66.09665185 13.12331772 66.30230236 C8.73455228 66.40107382 4.35291854 66.53464753 -0.03173828 66.7512207 C-28.3695692 68.11509935 -28.3695692 68.11509935 -35.26092529 63.50747681 C-39.37464343 59.12754338 -41.53833133 54.25905996 -43.54281616 48.66105652 C-45.18434138 44.85427381 -47.80725251 42.06666529 -50.67822266 39.13037109 C-51.42673492 38.35399544 -51.42673492 38.35399544 -52.19036865 37.56193542 C-72.4586786 17.05066216 -100.38994853 7.40937936 -128.890625 7.07592773 C-161.12010321 7.00120715 -190.22898242 14.65550348 -215.55322266 35.31787109 C-216.20419922 35.81673828 -216.85517578 36.31560547 -217.52587891 36.82958984 C-223.05385049 41.22426429 -227.23094844 46.7778431 -231.55322266 52.31787109 C-232.20162109 53.09259766 -232.85001953 53.86732422 -233.51806641 54.66552734 C-257.35993925 84.65070484 -262.72437664 127.66940966 -258.86572266 164.63037109 C-255.11063676 195.85762279 -242.42780206 223.69416226 -220.55322266 246.31787109 C-219.84166016 247.05521484 -219.13009766 247.79255859 -218.39697266 248.55224609 C-207.29043563 259.27842226 -192.96731338 267.02009073 -178.55322266 272.31787109 C-177.53486328 272.69427734 -176.51650391 273.07068359 -175.46728516 273.45849609 C-152.31654772 281.27259891 -125.20617077 282.34657729 -101.55322266 276.31787109 C-100.89499512 276.15158203 -100.23676758 275.98529297 -99.55859375 275.81396484 C-75.06266367 269.43450873 -55.48916443 255.83844378 -41.01025391 235.04052734 C-40.62418472 234.49836578 -40.23811554 233.95620422 -39.84034729 233.39761353 C-38.46252957 231.31672243 -38.46252957 231.31672243 -37.59046936 228.80116272 C-36.24412775 225.67247794 -35.03733677 223.67028723 -32.55322266 221.31787109 C-26.97001151 219.87361699 -21.50810454 220.15133847 -15.77978516 220.34130859 C-14.12930595 220.35997422 -12.47877111 220.37420207 -10.82821655 220.38418579 C-6.49645361 220.42225977 -2.16807678 220.52037839 2.16235352 220.63122559 C6.5861225 220.73376866 11.01044218 220.77924594 15.43505859 220.82958984 C24.10718074 220.93664419 32.77655718 221.10716677 41.44677734 221.31787109 C40.57520949 226.84065371 38.97435133 231.1164816 36.57177734 236.13037109 C36.17539063 236.95988281 35.77900391 237.78939453 35.37060547 238.64404297 C29.00920335 251.61341319 20.99839428 263.48295869 11.44677734 274.31787109 C10.60630859 275.29111328 9.76583984 276.26435547 8.89990234 277.26708984 C-22.41741724 312.9429464 -69.76114168 331.62546959 -116.40478516 334.72412109 C-154.76582577 336.92787154 -192.63792 330.98094087 -226.55322266 312.31787109 C-227.14893066 311.99850586 -227.74463867 311.67914063 -228.35839844 311.35009766 C-242.31298936 303.86152666 -254.5860932 294.90568492 -265.93994141 283.87988281 C-267.55741149 282.31381538 -269.19481159 280.7708082 -270.83447266 279.22802734 C-299.13705859 252.21211372 -316.43391885 214.63731853 -322.55322266 176.31787109 C-322.72893799 175.25947021 -322.72893799 175.25947021 -322.90820312 174.1796875 C-330.92560978 123.89518006 -319.39829226 70.38952617 -289.75146484 28.95214844 C-259.29485968 -12.58748378 -215.72765022 -37.36402093 -165.55322266 -46.68212891 C-164.8394043 -46.81635254 -164.12558594 -46.95057617 -163.39013672 -47.08886719 C-105.69029262 -57.33988897 -43.17067677 -39.05037969 0 0 Z " fill="#000000" transform="translate(2148.55322265625,170.68212890625)"/>
<path d="M0 0 C20.46 0 40.92 0 62 0 C62.33 43.89 62.66 87.78 63 133 C66.63 129.37 70.26 125.74 74 122 C76.39243563 120.1024653 78.5798936 118.42529529 81.125 116.8125 C82.06122192 116.2078894 82.06122192 116.2078894 83.01635742 115.59106445 C104.48321527 102.09753501 127.79635212 96.55816831 153 96.625 C153.7721283 96.62554382 154.54425659 96.62608765 155.33978271 96.62664795 C167.61113274 96.6663364 179.17700208 97.46933357 191 101 C191.72735352 101.20898926 192.45470703 101.41797852 193.20410156 101.63330078 C221.22447146 109.89825743 243.12223206 128.38497361 257.08691406 153.99316406 C269.08781624 176.78726203 272.50415264 201.40599566 272.34057617 226.89550781 C272.33972698 228.79005927 272.34021072 230.68461171 272.34190369 232.5791626 C272.34275367 237.65228632 272.3252923 242.72519104 272.30418181 247.7982645 C272.28524596 253.12597565 272.2836514 258.4536935 272.28010559 263.78143311 C272.27083425 273.83894943 272.24628798 283.89636627 272.21605712 293.95383906 C272.1823589 305.4171904 272.16598858 316.88054684 272.15097082 328.34393549 C272.11973324 351.89602462 272.06478368 375.44797761 272 399 C251.54 399 231.08 399 210 399 C209.97812622 390.95443726 209.97812622 390.95443726 209.95581055 382.74633789 C209.90538559 364.98868437 209.83892457 347.2311173 209.76428509 329.47354984 C209.71943741 318.71129909 209.67999766 307.94908062 209.65356445 297.18676758 C209.63049469 287.79959549 209.59699744 278.41252651 209.55129844 269.02543634 C209.52748664 264.06116803 209.50867934 259.09700107 209.50238609 254.13267708 C209.49628024 249.44669642 209.47608541 244.76097466 209.44572449 240.07509041 C209.43703143 238.36810107 209.43320322 236.66107777 209.43499184 234.95406723 C209.45247283 210.54193332 204.63782845 187.08072813 187 169 C169.23027471 154.30186615 148.53022273 150.46778497 126 152 C107.95822113 153.85565742 90.67155591 161.92988581 79 176 C65.14844866 195.0615381 62.54331635 216.50239756 62.56762695 239.38330078 C62.55858037 241.13963496 62.54824623 242.8959629 62.53674316 244.65228271 C62.50948652 249.35769564 62.49993195 254.0629878 62.49388909 258.76846933 C62.48442262 263.70920886 62.45821349 268.649861 62.43388367 273.59054565 C62.39044032 282.9184944 62.36175791 292.24642597 62.33856028 301.57444465 C62.31138885 312.20590786 62.26748538 322.83728218 62.22227156 333.46868157 C62.12974319 355.31241884 62.06012557 377.15614785 62 399 C41.54 399 21.08 399 0 399 C0 267.33 0 135.66 0 0 Z " fill="#000000" transform="translate(2248,103)"/>
<path d="M0 0 C1.16789062 0.61488281 2.33578125 1.22976562 3.5390625 1.86328125 C16.90922184 9.15197985 29.01983581 18.467093 40 29 C40.87205078 29.70962891 40.87205078 29.70962891 41.76171875 30.43359375 C43 32 43 32 43.43359375 34.39453125 C42.85752163 37.85615384 41.49037312 39.17662267 39.0625 41.6875 C38.24136719 42.54988281 37.42023438 43.41226563 36.57421875 44.30078125 C35.72472656 45.19152344 34.87523437 46.08226562 34 47 C32.4560765 48.78972226 30.91432877 50.58132431 29.375 52.375 C21.94086517 60.54225886 21.94086517 60.54225886 15.84765625 61.25 C9.02302864 61.06334352 5.64739599 57.5872407 1 53 C-5.12138955 47.05115054 -11.32747705 42.72576958 -18.9375 38.875 C-19.94167969 38.36074463 -20.94585937 37.84648926 -21.98046875 37.31665039 C-53.97402139 21.31733651 -92.23927105 17.77190059 -126.36987305 29.03320312 C-128.25035112 29.67791145 -130.12529579 30.33869015 -132 31 C-133.0725 31.35707031 -134.145 31.71414062 -135.25 32.08203125 C-149.18465478 37.01141538 -162.49433218 44.75883409 -174 54 C-174.53544434 54.41942871 -175.07088867 54.83885742 -175.62255859 55.27099609 C-203.28921358 77.07534492 -220.17531668 110.1776734 -224.69091797 144.88378906 C-226.3114571 161.22230528 -225.88499238 178.01264456 -222 194 C-221.83371094 194.69561035 -221.66742188 195.3912207 -221.49609375 196.10791016 C-217.93146082 210.50836708 -211.82768048 223.97001454 -204.91015625 237.0546875 C-199.66183239 248.27213506 -203.96552875 261.55160774 -207 272.8125 C-207.38686051 274.29454574 -207.77228623 275.77696677 -208.15625 277.25976562 C-209.08771612 280.84430899 -210.03831874 284.4234281 -211 288 C-206.02056455 287.07038266 -201.09181209 286.07384505 -196.2109375 284.7109375 C-181.5085756 280.61050361 -168.35666723 278.29545428 -154 285 C-117.60235679 301.98783301 -79.86386493 309.8186502 -40.95605469 295.734375 C-24.13297331 289.41837041 -9.69839977 280.74814802 4.3918457 269.60913086 C8.83294873 266.1938787 12.15205529 263.84214137 18 264 C20.15234375 265.1171875 20.15234375 265.1171875 21.9375 266.875 C22.60265625 267.51824219 23.2678125 268.16148437 23.953125 268.82421875 C26.77196184 271.82057776 29.49822343 274.88761545 32.18359375 278.00390625 C34.03391369 280.15337039 34.03391369 280.15337039 36.75 282.125 C39.96049333 284.80041111 41.31253697 287.15258429 43 291 C40.37695784 301.95610806 24.01131475 311.08683657 15 317 C14.37561035 317.4110498 13.7512207 317.82209961 13.10791016 318.24560547 C-27.38085954 344.45024009 -77.98240911 352.06980106 -124.921875 342.39794922 C-137.11054326 339.70749417 -148.58191279 335.93457503 -159.96875 330.83203125 C-160.65453125 330.52475098 -161.3403125 330.2174707 -162.046875 329.90087891 C-163.87209861 329.05899452 -165.67173695 328.16224894 -167.46875 327.26171875 C-176.01632931 324.2076611 -184.02865469 326.75044298 -192.453125 329.0625 C-194.87103457 329.70074506 -197.28900525 330.33875865 -199.70703125 330.9765625 C-203.47784032 331.98531397 -207.24717074 332.99923462 -211.01513672 334.01855469 C-214.678473 335.00522477 -218.34662281 335.97214765 -222.015625 336.9375 C-223.12335266 337.24373291 -224.23108032 337.54996582 -225.37237549 337.86547852 C-234.07798764 340.14358263 -243.94163308 342.08492767 -252.5 338.375 C-257.27058464 335.5066105 -260.07839819 332.05265858 -262.375 326.9375 C-264.44244433 313.91260072 -259.95183741 301.06578638 -256.5625 288.625 C-256.05299821 286.72032951 -255.54452745 284.81538291 -255.03710938 282.91015625 C-254.10459928 279.41968037 -253.16793952 275.93042398 -252.22094727 272.44384766 C-252.01513535 271.68450928 -251.80932343 270.9251709 -251.59727478 270.14282227 C-251.05147235 268.18466558 -250.46085755 266.23914171 -249.86572266 264.29541016 C-247.10093765 253.77113832 -249.51258612 244.97871189 -253.6875 235.25 C-254.61509457 232.95751164 -255.53828572 230.66323655 -256.45703125 228.3671875 C-257.1214624 226.72121582 -257.1214624 226.72121582 -257.79931641 225.04199219 C-275.20393743 180.94651069 -271.64622789 130.44448388 -253.3125 87.375 C-234.76286009 45.32774984 -199.50132912 11.43943288 -157 -6 C-156.29085449 -6.29213379 -155.58170898 -6.58426758 -154.85107422 -6.88525391 C-104.2054714 -27.39065345 -48.21682871 -26.15475191 0 0 Z " fill="#040404" transform="translate(426,161)"/>
<path d="M0 0 C20.79 0 41.58 0 63 0 C63 24.09 63 48.18 63 73 C86.76 73 110.52 73 135 73 C135 90.16 135 107.32 135 125 C111.24 125 87.48 125 63 125 C63.08551188 146.7318352 63.17913886 168.46358616 63.28752708 190.19531822 C63.33759706 200.28628405 63.38404056 210.37724198 63.421875 220.46826172 C63.45487009 229.26607773 63.49474266 238.06383144 63.54279006 246.86157858 C63.56798042 251.5176443 63.58978356 256.17366908 63.60334396 260.82978439 C63.61623227 265.21775612 63.63835884 269.60558695 63.66738319 273.99348068 C63.67640629 275.59859691 63.6821368 277.20373579 63.68421364 278.80887604 C63.40858571 296.0580456 63.40858571 296.0580456 71 311 C79.06495826 317.92036812 88.9627542 318.29448716 99.16015625 318.4140625 C100.53246399 318.44052856 100.53246399 318.44052856 101.93249512 318.4675293 C105.30899356 318.52999739 108.68577067 318.57659551 112.0625 318.625 C123.4165625 318.810625 123.4165625 318.810625 135 319 C135 336.16 135 353.32 135 371 C119.46006465 371.12032643 119.46006465 371.12032643 112.72460938 371.14648438 C108.16745235 371.16426793 103.61047976 371.18506889 99.0534668 371.22631836 C70.72994133 371.47578574 42.21035156 370.9491569 20.21411133 350.37597656 C4.59999622 335.03164623 0.10541797 312.40669632 -0.11048234 291.24233782 C-0.1280222 287.48220806 -0.12235825 283.7223045 -0.11352539 279.9621582 C-0.11324282 278.26597597 -0.11340261 276.56979361 -0.1139679 274.87361145 C-0.11425315 270.30001766 -0.10840057 265.72645044 -0.10139394 261.15286279 C-0.09511494 256.36160942 -0.09455302 251.57035535 -0.09336853 246.77909851 C-0.09026857 237.72005457 -0.08207327 228.6610228 -0.07201904 219.6019842 C-0.06081633 209.28270099 -0.055337 198.96341718 -0.05032361 188.6441294 C-0.03988946 167.42941131 -0.02156068 146.21470989 0 125 C-11.55 125 -23.1 125 -35 125 C-35 107.84 -35 90.68 -35 73 C-23.45 73 -11.9 73 0 73 C0 48.91 0 24.82 0 0 Z " fill="#000000" transform="translate(2945,131)"/>
<path d="M0 0 C0.92635254 0.04785645 1.85270508 0.09571289 2.80712891 0.14501953 C58.63751403 3.21319946 112.25125693 21.2901607 155 58 C155.8559375 58.72574219 156.711875 59.45148438 157.59375 60.19921875 C168.80931137 69.84543851 168.80931137 69.84543851 171 75 C169.84526196 79.03169246 167.97573114 81.38216291 165.0078125 84.28515625 C164.22019531 85.06310547 163.43257813 85.84105469 162.62109375 86.64257812 C161.79738281 87.44115234 160.97367187 88.23972656 160.125 89.0625 C158.90103516 90.26616211 158.90103516 90.26616211 157.65234375 91.49414062 C156.12987158 92.99053456 154.60433097 94.48381781 153.07470703 95.97290039 C151.65616157 97.3588951 150.27174002 98.7804555 148.91870117 100.23046875 C147 102 147 102 144.04296875 102.46484375 C140.44654654 101.91545448 139.03811938 100.93642655 136.3125 98.5625 C135.01119141 97.46035156 135.01119141 97.46035156 133.68359375 96.3359375 C132.79800781 95.56507813 131.91242188 94.79421875 131 94 C104.56318844 71.52666715 74.24168346 55.72521106 40.3125 48.25 C39.41136475 48.05132324 38.51022949 47.85264648 37.58178711 47.64794922 C23.28974551 44.65220381 9.42644515 43.6217534 -5.125 43.6875 C-5.98472412 43.68965515 -6.84444824 43.6918103 -7.73022461 43.69403076 C-20.68745669 43.74610773 -33.31035623 44.14902277 -46 47 C-47.37333496 47.30599121 -47.37333496 47.30599121 -48.77441406 47.61816406 C-80.07432619 54.80741168 -108.8892309 67.80070364 -134 88 C-135.49660156 89.19109375 -135.49660156 89.19109375 -137.0234375 90.40625 C-166.45745924 114.30993796 -187.89626278 144.52786155 -201 180 C-201.24733887 180.65291016 -201.49467773 181.30582031 -201.74951172 181.97851562 C-219.78342394 229.91448215 -216.83292861 282.83467369 -198.44140625 330.02734375 C-197.98636719 331.21457031 -197.53132813 332.40179688 -197.0625 333.625 C-196.66160156 334.60726563 -196.26070312 335.58953125 -195.84765625 336.6015625 C-193.14547304 347.43520026 -196.25149448 357.70082745 -198.99780273 368.21777344 C-199.69002707 370.88473614 -200.34888938 373.55853743 -201.00585938 376.234375 C-201.44333057 377.94582033 -201.88271684 379.65677754 -202.32421875 381.3671875 C-202.51715012 382.15995087 -202.71008148 382.95271423 -202.90885925 383.76950073 C-204.28048053 388.8826394 -205.93354842 391.58256346 -210 395 C-239.85397436 357.62135588 -256.4255594 308.88745729 -257 261 C-257.0117627 260.14760742 -257.02352539 259.29521484 -257.03564453 258.41699219 C-257.52743297 195.32158238 -237.22464727 133.09214765 -194.0703125 86.25390625 C-192.22684843 84.24696517 -190.45220907 82.20087758 -188.6875 80.125 C-143.13124757 27.89422687 -69.41484387 -3.92856527 0 0 Z " fill="#050505" transform="translate(346,72)"/>
<path d="M0 0 C4.81755691 3.28890905 8.39632459 7.46634384 12 12 C13.15180939 12.99660103 14.31995248 13.97450139 15.5 14.9375 C18.71185133 17.64403851 21.09532143 20.19064286 23 24 C23.28698973 28.40050923 21.66332202 30.6927715 18.9375 33.9375 C5.9506383 48.3299985 -11.27828876 59.48733047 -28 69 C-29.14057861 69.65162109 -29.14057861 69.65162109 -30.30419922 70.31640625 C-42.42675674 77.16328805 -54.85999987 82.43454838 -68 87 C-68.88026855 87.31066406 -69.76053711 87.62132812 -70.66748047 87.94140625 C-107.82693941 100.92311381 -147.03687936 104.19401402 -186 99 C-187.18843506 98.84724609 -187.18843506 98.84724609 -188.40087891 98.69140625 C-227.76687828 93.50134163 -264.142521 78.03191887 -297 56 C-296 53 -296 53 -293.5703125 51.640625 C-285.00110053 48.1818501 -276.29808553 45.52788839 -267.375 43.125 C-265.69688232 42.6594873 -265.69688232 42.6594873 -263.98486328 42.18457031 C-253.47559916 39.46228179 -243.47386375 38.66487762 -233.0625 42.0625 C-232.35907471 42.28292969 -231.65564941 42.50335937 -230.9309082 42.73046875 C-226.93383723 43.99274732 -222.97168145 45.35259768 -219.0078125 46.71484375 C-168.67878333 63.74402591 -114.18181416 62.47413214 -66.09057617 39.19042969 C-62.69899563 37.51321615 -59.34727673 35.76361017 -56 34 C-55.34918457 33.66129883 -54.69836914 33.32259766 -54.02783203 32.97363281 C-38.9573997 25.07262946 -25.49100617 14.95490408 -12.23779297 4.33837891 C-7.94057568 0.89722246 -5.63471398 -0.83477244 0 0 Z " fill="#050505" transform="translate(493,474)"/>
</svg>
